<svg version="1.1" id="Mode_Isolation" xmlns="http://www.w3.org/2000/svg" x="0" y="0" viewBox="0 0 291.2 140.1" xml:space="preserve"><style>.st1{fill:#fff}</style><path class="st1" d="M253.2 9.2c-21.4-2.3-28.9 12-28.9 12 1.3.1 3.9-1.6 3.9-1.6 4.2-3.6 9.9-5.1 9.9-5.1-10.4 5.2-15.9 14-15.9 14 1.8.2 3-.6 3-.6C238.4 16.2 246 17.1 246 17.1c-12.3 3.4-24.4 16-24.4 16 2.5 2.8 8.3-1.5 8.3-1.5 12.4-10.5 23-8.6 23-8.6-18 6.3-13.7 12.7-13.7 12.7 3.2-2.9 8.2-4.5 11.6-5.3 3.3-.8 10.3-1.5 11.2-2.9.8-1.4 3.3-.7 3.3-.7C285.7 33 283.6 63 283.6 63c6.1-21.4-9.3-51.6-30.4-53.8zm-7.6 62c-12.6 10.3-23.2 8.2-23.2 8.2 18.2-6 14-12.4 14-12.4-3.3 2.8-8.3 4.4-11.7 5.1-3.3.7-10.4 1.3-11.2 2.7-.8 1.4-3.3.6-3.3.6-20.3-6.6-17.6-36.6-17.6-36.6-6.6 21.2 8.3 51.6 29.3 54.3 21.4 2.7 29.1-11.4 29.1-11.4-1.3-.1-4 1.6-4 1.6-4.3 3.6-10 4.9-10 4.9 10.5-5 16.1-13.7 16.1-13.7-1.8-.3-3 .5-3 .5-13.4 11.5-20.9 10.5-20.9 10.5 12.3-3.2 24.7-15.5 24.7-15.5-2.4-2.9-8.3 1.2-8.3 1.2z" opacity=".5"/><path class="st1" d="M268 37.6c-.1 1.3 1.6 3.9 1.6 3.9 3.7 4.2 5.1 9.9 5.1 9.9-5.2-10.4-14-15.8-14-15.8-.2 1.8.6 3 .6 3 11.8 13.1 11 20.7 11 20.7-3.4-12.3-16-24.3-16-24.3-2.8 2.6 1.5 8.3 1.5 8.3 10.6 12.4 8.7 23 8.7 23-6.4-18-12.8-13.7-12.8-13.7 2.9 3.2 4.5 8.2 5.4 11.6.8 3.3 1.6 10.3 3 11.1 1.4.8.7 3.3.7 3.3C256.7 99 226.6 97 226.6 97c21.3 6.1 51.4-9.4 53.6-30.5C282.3 45 268 37.6 268 37.6zm-53.3-10.9c-1.3-.9-.5-3.3-.5-3.3C221 3.2 251 6.3 251 6.3c-21.1-6.8-51.8 7.6-54.7 28.6-3 21.3 11.1 29.3 11.1 29.3.2-1.3-1.5-4-1.5-4-3.5-4.4-4.7-10.1-4.7-10.1 4.8 10.6 13.5 16.3 13.5 16.3.3-1.8-.5-3-.5-3-11.3-13.5-10.2-21-10.2-21 3 12.4 15.2 24.9 15.2 24.9 2.9-2.5-1.2-8.4-1.2-8.4-10.2-12.9-8-23.4-8-23.4 5.7 18.2 12.3 14.1 12.3 14.1-2.8-3.3-4.2-8.4-4.9-11.7-.8-3.3-1.3-10.4-2.7-11.2zM47.5 47.4c-16.9 0-28.6 8.8-29.8 22.3-1.4 15.9 9.9 21 19 25.1 7.5 3.4 12.1 5.7 11.6 11.2-.4 4.9-5.6 8.1-13.3 8.1-7.5 0-13.3-2.9-16.9-5.4l-1.9-1.3-8.1 14.3 1.7 1.1c6.7 4.4 14.5 6.5 24.4 6.5 19.2 0 31.4-9 32.7-24.2C68.3 89.6 56.7 84.3 47.3 80c-7.5-3.4-12-5.7-11.6-10.5C36.2 63.9 43 63 47 63c7.4 0 12.7 2.1 17.8 4.4l2.8 1.2L69 52.2l-1.4-.6c-6.4-2.9-12.8-4.2-20.1-4.2zm124.9 63.9s-2.5.3-4.2-1.3c-1.8-1.7-1.9-4.9-1.7-7.3l4.8-55.3h-17.9l-4.8 55.4c-.1 1-1.3 11.9 5.3 19.4 4 4.6 10 6.9 17.7 6.9H203l4.9-17.9h-35.2l-.3.1zM112 47.4C92.8 47.4 77.5 64 75.5 87c-1.1 13 2 24.2 8.9 31.8 5.9 6.5 14.5 9.9 24.7 9.9 9.3 0 19.3-3.1 26.3-8l1.3-.9-4.4-13.1-2.3 1.3c-5.5 3.1-11.7 4.8-17.2 4.8-6 0-10.9-1.9-14.3-5.6-3.2-3.5-4.8-8.3-4.7-13.9h47l.5-5.5c1.2-13.6-1.6-24.5-8.2-31.7-5.2-5.7-12.4-8.7-21.1-8.7zM94.7 78.1c1.5-8.3 7.4-16 16.6-16 4 0 7.5 1.5 10.2 4.4 2.8 3 4.5 7.1 4.6 11.5l-31.4.1z"/></svg>